HIERARCHY
ROOT root
{
	OFFSET	0	13.1	24.9
	CHANNELS 6  Xposition Yposition Zposition Xrotation Yrotation Zrotation
	JOINT spine_1
	{
		OFFSET	0	9.99999	0
		CHANNELS 3  Xrotation Yrotation Zrotation
		JOINT spine_2
		{
			OFFSET	0	112	-10
			CHANNELS 3  Xrotation Yrotation Zrotation
			JOINT spine_3
			{
				OFFSET	0	206.5	19.3
				CHANNELS 3  Xrotation Yrotation Zrotation
				JOINT spine_4
				{
					OFFSET	0	110.4	14.6
					CHANNELS 3  Xrotation Yrotation Zrotation
					JOINT neck_1
					{
						OFFSET	0	71.8	-50.3
						CHANNELS 3  Xrotation Yrotation Zrotation
						JOINT neck_2
						{
							OFFSET	0	86.2	-25.8
							CHANNELS 3  Xrotation Yrotation Zrotation
							JOINT head_ee
							{
								OFFSET	0	179.8	-8.7
								CHANNELS 3  Xrotation Yrotation Zrotation
								End Site
								{
									OFFSET	1	0	0
								}
							}
						}
					}
					JOINT left_clavicle
					{
						OFFSET	-43.2	22.4	-70.8
						CHANNELS 3  Xrotation Yrotation Zrotation
						JOINT left_shoulder
						{
							OFFSET	-93.9	-5.79999	48.7
							CHANNELS 3  Xrotation Yrotation Zrotation
							JOINT left_elbow
							{
								OFFSET	-291.4	-30.8	15.2
								CHANNELS 3  Xrotation Yrotation Zrotation
								JOINT left_lowarm_twist
								{
									OFFSET	-110.7	-3.89999	13.6
									CHANNELS 3  Xrotation Yrotation Zrotation
									JOINT left_hand
									{
										OFFSET	-110.7	-3.89999	13.6
										CHANNELS 3  Xrotation Yrotation Zrotation
										JOINT left_ee
										{
											OFFSET	-80.8	-5.10001	12.1
											CHANNELS 3  Xrotation Yrotation Zrotation
											End Site
											{
												OFFSET	1	0	0
											}
										}
									}
								}
							}
						}
					}
					JOINT right_clavicle
					{
						OFFSET	43.2	22.4	-70.8
						CHANNELS 3  Xrotation Yrotation Zrotation
						JOINT right_shoulder
						{
							OFFSET	93.9	-5.79999	48.7
							CHANNELS 3  Xrotation Yrotation Zrotation
							JOINT right_elbow
							{
								OFFSET	291.4	-30.8	15.2
								CHANNELS 3  Xrotation Yrotation Zrotation
								JOINT right_lowarm_twist
								{
									OFFSET	110.7	-3.89999	13.6
									CHANNELS 3  Xrotation Yrotation Zrotation
									JOINT right_hand
									{
										OFFSET	110.7	-3.89999	13.6
										CHANNELS 3  Xrotation Yrotation Zrotation
										JOINT right_ee
										{
											OFFSET	80.8	-5.10001	12.1
											CHANNELS 3  Xrotation Yrotation Zrotation
											End Site
											{
												OFFSET	1	0	0
											}
										}
									}
								}
							}
						}
					}
				}
			}
		}
	}
	JOINT left_hip
	{
		OFFSET	-82.8	-127.5	0.300001
		CHANNELS 3  Xrotation Yrotation Zrotation
		JOINT left_knee
		{
			OFFSET	-28.2	-396.7	2.2
			CHANNELS 3  Xrotation Yrotation Zrotation
			JOINT left_ankle
			{
				OFFSET	-11.7	-411.3	35.4
				CHANNELS 3  Xrotation Yrotation Zrotation
				JOINT left_toes
				{
					OFFSET	0	-60	-88.6
					CHANNELS 3  Xrotation Yrotation Zrotation
					JOINT left_foot_ee
					{
						OFFSET	-22.5	-16.5	-42.2
						CHANNELS 3  Xrotation Yrotation Zrotation
						End Site
						{
							OFFSET	1	0	0
						}
					}
				}
			}
		}
	}
	JOINT right_hip
	{
		OFFSET	82.8	-127.5	0.300001
		CHANNELS 3  Xrotation Yrotation Zrotation
		JOINT right_knee
		{
			OFFSET	28.2	-396.7	2.2
			CHANNELS 3  Xrotation Yrotation Zrotation
			JOINT right_ankle
			{
				OFFSET	11.7	-411.3	35.4
				CHANNELS 3  Xrotation Yrotation Zrotation
				JOINT right_toes
				{
					OFFSET	0	-60	-88.6
					CHANNELS 3  Xrotation Yrotation Zrotation
					JOINT right_foot_ee
					{
						OFFSET	22.5	-16.5	-42.2
						CHANNELS 3  Xrotation Yrotation Zrotation
						End Site
						{
							OFFSET	1	0	0
						}
					}
				}
			}
		}
	}
}
MOTION
Frames: 15
Frame Time: 0.02
1897.07 662.483 -1180.05 -12.0523 54.0713 17.4283 2.5512 -0.364998 -0.985101 2.55169 -0.301577 -1.00633 2.55694 -0.130002 -1.04247 2.55555 -0.293001 -1.00886 -2.04765 6.362 -3.44221 -1.88205 14.2135 -2.79511 -0.0 0.0 -0.0 2.96266 4.93041 6.02087 -31.3819 -17.7129 72.0906 0.603316 -16.6397 0.0882285 -12.6602 -0.613968 1.49447 5.24503 -15.0256 30.034 -0.0 0.0 -0.0 11.3495 26.794 -21.8119 -4.42916 41.9203 -50.6464 0.561632 15.5476 -0.0766729 0.479863 -0.0166603 0.0590209 -1.6072 25.8143 21.7041 0.0 0.0 0.0 18.945 -63.7202 -14.2805 -7.08839 0.226287 1.06363 -18.8737 29.7727 3.03914 23.9711 -0.0 -0.0 -0.0 0.0 -0.0 7.33324 27.4133 -15.6056 -22.3873 -0.259646 -3.40388 35.3459 -8.57701 4.43811 19.6159 -0.0 -0.0 0.0 0.0 0.0 
1871.27 674.303 -1193.53 -13.015 55.0633 18.4063 2.38755 -0.458571 -1.23169 2.38832 -0.379272 -1.25837 2.39662 -0.161068 -1.30437 2.39443 -0.365031 -1.26258 -0.666564 6.924 -2.89374 -0.471968 14.7347 -2.31903 -0.0 0.0 -0.0 2.54591 4.56614 5.23025 -29.1337 -19.0712 72.1803 0.683387 -18.7025 0.112538 -12.9684 -0.632979 1.52903 5.37044 -15.6163 30.6499 -0.0 0.0 -0.0 11.3413 26.3969 -21.8387 -5.93675 40.7486 -51.661 0.5282 14.6632 -0.0679605 0.530527 -0.0183904 0.0652603 -1.68313 25.4678 22.0987 0.0 0.0 0.0 16.3708 -65.4444 -16.1528 -5.85476 0.196399 0.87668 -18.734 29.2791 3.00656 25.0728 -0.0 -0.0 -0.0 0.0 -0.0 6.87308 28.2804 -15.8849 -22.0894 -0.264967 -3.35847 35.1736 -9.17336 4.42402 19.4704 -0.0 -0.0 0.0 0.0 0.0 
1852.57 680.751 -1203.32 -12.8577 55.7915 18.2222 2.2759 -0.448311 -0.981213 2.27635 -0.384969 -1.00775 2.28315 -0.206954 -1.05873 2.28178 -0.371555 -1.01277 0.567961 7.62708 -1.88452 0.77747 15.0927 -1.30866 -0.0 0.0 -0.0 3.94167 3.28808 7.7578 -26.3472 -18.9835 71.495 0.582286 -16.0902 0.0823031 -12.9646 -0.632743 1.5286 5.23757 -15.6306 29.6262 -0.0 0.0 -0.0 11.3734 25.4519 -22.0156 -7.33873 39.7599 -52.7774 0.503749 14.0118 -0.0619054 0.591883 -0.0204781 0.0728185 -1.57394 26.04 21.5594 0.0 0.0 0.0 14.709 -66.914 -16.4931 -5.86241 0.196597 0.877838 -18.6885 29.5451 3.00446 26.5898 -0.0 -0.0 -0.0 0.0 -0.0 8.24521 29.0819 -16.9434 -23.3616 -0.240597 -3.55218 36.2644 -10.2047 4.53523 19.3632 -0.0 -0.0 0.0 0.0 0.0 
1835.68 688.217 -1208.26 -13.1616 56.7237 19.3473 2.11258 -0.426664 -0.852778 2.11291 -0.371537 -0.878197 2.11866 -0.213203 -0.929412 2.11763 -0.357305 -0.884082 1.40566 7.95004 -1.05195 1.61356 14.9079 -0.465661 -0.0 0.0 -0.0 4.40474 2.57746 8.6041 -25.0785 -19.1883 70.3232 0.510344 -14.1878 0.063512 -13.26 -0.651135 1.56163 5.18457 -16.2122 28.8862 -0.0 0.0 -0.0 11.4544 24.7666 -22.2714 -8.91626 38.6931 -53.3015 0.427087 11.9459 -0.0446852 0.981727 -0.0335543 0.120893 -1.377 26.4186 20.3548 0.0 0.0 0.0 13.7546 -67.8223 -15.8963 -7.27454 0.230446 1.09189 -18.5619 29.7318 2.98763 28.2525 -0.0 -0.0 -0.0 0.0 -0.0 9.41566 30.342 -17.7524 -24.6323 -0.211967 -3.74507 38.2967 -11.6481 4.73722 19.4495 -0.0 -0.0 0.0 0.0 0.0 
1804.14 686.073 -1212.51 -10.3663 57.927 16.3634 1.90984 -0.40112 -0.689405 1.91003 -0.35644 -0.71353 1.91453 -0.224233 -0.765435 1.91388 -0.342302 -0.720419 1.52792 8.01026 -0.313072 1.71296 14.3872 0.339119 -0.0 0.0 -0.0 4.98196 2.02997 9.68695 -23.7488 -19.3498 68.7366 0.460599 -12.8532 0.0518812 -13.6825 -0.677739 1.6087 5.15309 -16.6117 28.4167 -0.0 0.0 -0.0 11.1627 23.3314 -21.7497 -11.958 37.5016 -53.4639 0.371688 10.4329 -0.0339339 0.906508 -0.0310569 0.11161 -1.09636 26.0888 18.3289 0.0 0.0 0.0 14.6139 -67.7014 -10.4455 -8.26431 0.25102 1.24238 -18.4502 30.1097 2.9771 30.1864 -0.0 -0.0 -0.0 0.0 -0.0 11.7617 29.2447 -20.0002 -32.1155 0.04276 -4.86446 40.9435 -11.1871 4.96862 20.2521 -0.0 -0.0 0.0 0.0 0.0 
1773.81 704.626 -1228.22 -6.44142 58.6488 14.3227 1.23125 -0.182736 -1.57104 1.23261 -0.0824086 -1.57948 1.23512 0.217728 -1.56658 1.23169 -0.0323835 -1.5813 0.752548 7.32406 1.86169 0.850215 11.449 2.72033 -0.0 0.0 -0.0 5.74758 0.936882 11.1402 -21.5306 -20.3769 68.0376 0.511483 -14.2182 0.0637917 -13.8341 -0.687366 1.62554 4.97954 -15.214 27.9154 -0.0 0.0 -0.0 11.5434 21.8744 -22.7444 -14.5273 36.7409 -52.5766 0.325457 9.15873 -0.0260678 -0.0846413 0.00299013 -0.0103961 -0.651737 25.1611 14.9837 0.0 0.0 0.0 26.5602 -65.9397 1.69734 -23.518 0.237304 3.57595 -9.62328 29.0355 1.52947 34.0407 -0.0 -0.0 -0.0 0.0 -0.0 12.5457 29.3785 -21.0997 -37.8576 0.336123 -5.69601 40.9918 -13.0686 4.99354 23.3273 -0.0 -0.0 0.0 0.0 0.0 
1758.98 702.327 -1229.19 -3.49238 59.0236 12.1781 0.754454 -0.269238 -1.948 0.756553 -0.144761 -1.96118 0.762164 0.244798 -1.95122 0.756856 -0.0663712 -1.96539 0.204071 6.49529 3.33768 0.271461 8.82143 4.2645 -0.0 0.0 -0.0 7.21722 -0.57591 14.025 -16.0886 -21.7263 65.7242 0.551737 -15.2866 0.0740425 -13.2713 -0.651842 1.56289 4.77975 -13.5866 27.3142 -0.0 0.0 -0.0 11.6438 21.0631 -23.0393 -16.7156 36.0463 -51.9406 0.299747 8.44608 -0.0221333 -1.37574 0.0505005 -0.168422 -0.0812115 24.5959 10.969 0.0 0.0 0.0 31.1942 -61.6641 6.95681 -34.5016 -0.154509 5.21347 -0.886906 28.8892 0.138799 38.1112 -0.0 -0.0 -0.0 0.0 -0.0 14.1289 27.7879 -21.6627 -42.0159 0.599975 -6.27816 39.7626 -14.4449 4.90321 25.1584 -0.0 -0.0 0.0 0.0 0.0 
1735.32 708.078 -1230.03 -0.669287 58.9553 10.1268 0.139051 -0.340069 -2.23105 0.141799 -0.197449 -2.24816 0.150897 0.27366 -2.24016 0.143903 -0.083473 -2.25526 -0.290707 5.77587 4.25747 -0.227904 6.84356 5.19168 -0.0 0.0 -0.0 7.99882 -1.65844 15.6053 -12.698 -22.8084 63.8029 0.580468 -16.0426 0.0818 -12.8965 -0.628526 1.52097 4.64624 -12.5443 26.8694 -0.0 0.0 -0.0 11.4071 20.5339 -22.54 -18.5042 35.3023 -50.9169 0.271663 7.66466 -0.0181978 -2.28113 0.0859389 -0.278591 0.346019 24.1232 7.95974 0.0 0.0 0.0 34.7063 -56.9413 10.8372 -40.8544 -0.522019 6.11747 5.13807 28.7767 -0.792387 40.337 -0.0 -0.0 -0.0 0.0 -0.0 15.1894 26.4045 -22.689 -44.9253 0.809465 -6.67357 38.7472 -15.4598 4.82542 26.4238 -0.0 -0.0 0.0 0.0 0.0 
1719.14 703.466 -1234.67 0.50371 60.354 9.0182 -0.339432 -0.554179 -2.44855 -0.336185 -0.397298 -2.47883 -0.316714 0.146386 -2.50618 -0.325391 -0.251128 -2.49786 -0.497819 5.17242 4.78262 -0.432317 5.36082 5.69052 -0.0 0.0 -0.0 8.2603 -2.36213 16.1452 -11.245 -23.376 62.4373 0.581698 -16.0748 0.0821403 -12.717 -0.617458 1.50085 4.54387 -11.8219 26.4799 -0.0 0.0 -0.0 10.8546 19.7565 -21.3429 -20.3086 34.3877 -50.1071 0.246541 6.96317 -0.0149996 -2.90615 0.111418 -0.354316 0.656399 23.7042 5.74545 0.0 0.0 0.0 33.7423 -52.9751 10.468 -45.0346 -0.817728 6.68822 9.34918 28.6464 -1.4238 40.9661 -0.0 -0.0 -0.0 0.0 -0.0 15.9363 26.0255 -21.7047 -47.1288 0.981401 -6.96582 37.9298 -16.315 4.76233 27.3278 -0.0 -0.0 0.0 0.0 0.0 
1691.67 712.278 -1236.56 1.7272 60.5263 8.13363 -0.624146 -0.728555 -2.66608 -0.620365 -0.557493 -2.70699 -0.590835 0.0522212 -2.76327 -0.601283 -0.384674 -2.73688 -0.638365 4.74456 5.14206 -0.567606 4.31917 6.02717 -0.0 0.0 -0.0 8.52551 -2.93626 16.6963 -10.1486 -23.8646 61.5399 0.58584 -16.1833 0.083291 -12.585 -0.60936 1.48603 4.47276 -11.3164 26.2079 -0.0 0.0 -0.0 10.4884 19.2064 -20.5546 -21.5968 33.7248 -49.7092 0.229337 6.48156 -0.0129856 -3.36061 0.130463 -0.409202 0.875751 23.3958 4.17524 0.0 0.0 0.0 33.3218 -49.6132 11.3155 -47.4269 -1.00553 7.00486 12.2905 28.4854 -1.85268 41.0987 -0.0 -0.0 -0.0 0.0 -0.0 16.5977 25.6233 -21.4702 -48.6851 1.10959 -7.16822 37.3284 -16.895 4.71449 27.9556 -0.0 -0.0 0.0 0.0 0.0 
1675.2 706.845 -1238.76 2.68481 59.8471 7.16348 -0.824984 -0.900868 -2.8114 -0.820875 -0.720221 -2.86297 -0.7809 -0.0625658 -2.95144 -0.792667 -0.527707 -2.90459 -0.675426 4.44809 5.38748 -0.599527 3.5929 6.25568 -0.0 0.0 -0.0 8.72317 -3.43219 17.1105 -9.23135 -24.269 60.7409 0.588956 -16.2648 0.0841616 -12.4899 -0.603544 1.47533 4.42102 -10.9637 26.0006 -0.0 0.0 -0.0 10.069 18.4826 -19.661 -22.8392 33.0652 -49.6983 0.2135 6.03739 -0.0112589 -3.67938 0.144082 -0.447611 1.03491 23.1733 3.03585 0.0 0.0 0.0 32.7413 -46.9156 11.7607 -49.0756 -1.14262 7.21846 14.3221 28.3675 -2.14256 40.9769 -0.0 -0.0 -0.0 0.0 -0.0 17.0676 25.3446 -21.3024 -49.7701 1.20221 -7.30725 36.8751 -17.3027 4.67754 28.3924 -0.0 -0.0 0.0 0.0 0.0 
1645.61 710.949 -1237.96 2.45091 58.069 7.33482 -0.500726 -1.08755 -3.00028 -0.496163 -0.894519 -3.06333 -0.444127 -0.206704 -3.18445 -0.45758 -0.706789 -3.11196 -0.700145 4.24113 5.55973 -0.61988 3.08505 6.416 -0.0 0.0 -0.0 8.8592 -4.08513 17.4 -6.89799 -24.6753 59.6118 0.598858 -16.5235 0.0869563 -12.1872 -0.585158 1.44124 4.35933 -10.5518 25.7475 -0.0 0.0 -0.0 9.37382 15.8032 -18.2677 -25.9061 31.878 -51.7333 0.201796 5.70868 -0.0100613 -4.2771 0.170194 -0.519428 1.20127 23.1209 1.9247 0.0 0.0 0.0 30.6438 -43.5083 9.6959 -47.2859 -0.994097 6.98641 14.7772 28.3215 -2.20646 39.7676 -0.0 -0.0 -0.0 0.0 -0.0 17.8409 26.6276 -20.4517 -50.1466 1.23496 -7.3551 36.4823 -17.5944 4.64416 28.6977 -0.0 -0.0 0.0 0.0 0.0 
1625.36 710.596 -1240.92 2.86145 57.7796 6.32136 -0.158978 -1.14524 -2.92362 -0.154732 -0.956963 -2.99049 -0.101187 -0.302322 -3.12517 -0.113941 -0.791862 -3.03834 -0.716087 4.09601 5.71101 -0.631492 2.70397 6.56088 -0.0 0.0 -0.0 8.96727 -4.4259 17.629 -5.45552 -24.926 59.1519 0.601244 -16.5857 0.0876362 -12.0142 -0.574728 1.42171 4.3119 -10.2779 25.5307 -0.0 0.0 -0.0 8.77733 13.9528 -17.0449 -28.1154 31.0549 -52.9538 0.199869 5.65454 -0.00987056 -4.65326 0.187012 -0.564485 1.32266 23.0818 1.11377 0.0 0.0 0.0 28.4645 -40.6087 8.99694 -46.1211 -0.90137 6.83298 15.088 28.1829 -2.24836 38.9169 -0.0 -0.0 -0.0 0.0 -0.0 19.8058 27.0641 -20.2594 -49.6862 1.19495 -7.29657 36.2037 -17.8386 4.62097 28.9101 -0.0 -0.0 0.0 0.0 0.0 
1603.51 708.835 -1250.54 2.42582 57.7766 6.32409 0.0525855 -1.16049 -2.87557 0.0566568 -0.975243 -2.94351 0.109975 -0.341528 -3.08188 0.097668 -0.823751 -2.98941 -0.732613 3.98203 5.79416 -0.645436 2.43418 6.63648 -0.0 0.0 -0.0 9.21903 -4.62032 18.1599 -4.37215 -25.1464 59.144 0.605591 -16.699 0.0888812 -11.893 -0.567462 1.40802 4.2738 -10.0909 25.3399 -0.0 0.0 -0.0 8.47536 12.637 -16.4429 -29.3529 30.6441 -54.0741 0.205561 5.81448 -0.0104394 -4.91626 0.198946 -0.595921 1.40848 23.057 0.541701 0.0 0.0 0.0 27.1632 -38.4564 8.68225 -45.0559 -0.819342 6.69108 15.3241 28.0617 -2.27981 38.326 -0.0 -0.0 -0.0 0.0 -0.0 21.1661 27.4057 -20.1232 -49.3649 1.16731 -7.25554 36.0239 -18.0074 4.60612 29.068 -0.0 -0.0 0.0 0.0 0.0 
1585.93 707.834 -1255.02 1.15585 57.71 6.83155 0.361384 -1.19754 -3.02301 0.365909 -1.00284 -3.093 0.423086 -0.355164 -3.23193 0.409544 -0.860879 -3.13544 -1.01522 3.87563 5.86463 -0.92548 2.22064 6.6935 -0.0 0.0 -0.0 9.37831 -4.98641 18.4999 -2.97835 -25.6155 58.2855 0.642882 -17.6649 0.0998975 -11.8077 -0.562361 1.39837 4.2309 -10.113 25.0105 -0.0 0.0 -0.0 8.20584 11.0029 -15.9213 -30.162 30.4036 -54.9202 0.236038 6.66925 -0.013753 -5.11067 0.207861 -0.619125 1.47446 23.1175 0.138183 0.0 0.0 0.0 25.6767 -36.407 8.46507 -43.9546 -0.737333 6.54282 15.4797 27.5607 -2.29426 37.9122 -0.0 -0.0 -0.0 0.0 -0.0 23.0826 27.9257 -19.6473 -48.4963 1.09374 -7.14384 35.9455 -18.1797 4.6014 29.2081 -0.0 -0.0 0.0 0.0 0.0 
